# Blender 4.1.1
# www.blender.org
o Cube
v 1.000000 -1.000000 1.000000
v 1.000000 1.000000 1.000000
v 1.000000 -1.000000 -1.000000
v 1.000000 1.000000 -1.000000
v 3.000000 1.000000 -1.000000
v 3.000000 0.000000 -1.000000
v 3.000000 0.000000 1.000000
v 3.000000 1.000000 1.000000
v 9.000000 1.000000 -1.000000
v 9.000000 0.000000 -1.000000
v 9.000000 0.000000 1.000000
v 9.000000 1.000000 1.000000
v -1.000000 -0.279980 1.000000
v -0.279980 -1.000000 1.000000
v -0.789111 -0.789111 1.000000
v -0.279980 1.000000 1.000000
v -1.000000 0.279980 1.000000
v -0.789111 0.789111 1.000000
v -0.279980 -1.000000 -1.000000
v -1.000000 -0.279980 -1.000000
v -0.789111 -0.789111 -1.000000
v -1.000000 0.279980 -1.000000
v -0.279980 1.000000 -1.000000
v -0.789111 0.789111 -1.000000
vn -0.0000 -0.0000 1.0000
vn 0.4472 -0.8944 -0.0000
vn -0.0000 1.0000 -0.0000
vn -1.0000 -0.0000 -0.0000
vn -0.0000 -0.0000 -1.0000
vn 1.0000 -0.0000 -0.0000
vn -0.0000 -1.0000 -0.0000
vn -0.3827 -0.9239 -0.0000
vn -0.9239 -0.3827 -0.0000
vn -0.3827 0.9239 -0.0000
vn -0.9239 0.3827 -0.0000
vt 0.375000 0.750000
vt 0.625000 0.750000
vt 0.625000 0.909998
vt 0.598639 0.973639
vt 0.534998 1.000000
vt 0.465002 1.000000
vt 0.401361 0.973639
vt 0.375000 0.909998
vt 0.375000 0.500000
vt 0.625000 0.500000
vt 0.784998 0.500000
vt 0.784998 0.750000
vt 0.465002 0.000000
vt 0.534998 0.000000
vt 0.534998 0.250000
vt 0.465002 0.250000
vt 0.375000 0.340002
vt 0.401361 0.276361
vt 0.598639 0.276361
vt 0.625000 0.340002
vt 0.215003 0.500000
vt 0.215003 0.750000
vt 0.125000 0.750000
vt 0.125000 0.500000
vt 0.375000 0.250000
vt 0.375000 0.000000
vt 0.875000 0.500000
vt 0.875000 0.750000
vt 0.625000 0.000000
vt 0.625000 0.250000
s 0
f 1/1/1 2/2/1 16/3/1 18/4/1 17/5/1 13/6/1 15/7/1 14/8/1
f 1/1/2 3/9/2 6/9/2 7/1/2
f 4/10/3 23/11/3 16/12/3 2/2/3
f 13/13/4 17/14/4 22/15/4 20/16/4
f 19/17/5 21/18/5 20/16/5 22/15/5 24/19/5 23/20/5 4/10/5 3/9/5
f 5/10/3 8/2/3 12/2/3 9/10/3
f 4/10/3 2/2/3 8/2/3 5/10/3
f 3/9/5 4/10/5 5/10/5 6/9/5
f 2/2/1 1/1/1 7/1/1 8/2/1
f 10/9/6 9/10/6 12/2/6 11/1/6
f 6/9/5 5/10/5 9/10/5 10/9/5
f 8/2/1 7/1/1 11/1/1 12/2/1
f 7/1/7 6/9/7 10/9/7 11/1/7
f 19/21/8 14/22/8 15/23/8 21/24/8
f 21/25/9 15/26/9 13/13/9 20/16/9
f 16/12/10 23/11/10 24/27/10 18/28/10
f 18/29/11 24/30/11 22/15/11 17/14/11
f 19/21/7 3/9/7 1/1/7 14/22/7
